<svg xmlns="http://www.w3.org/2000/svg" viewBox="0 0 157.95 34.36"><defs><style>.cls-1{fill:#1d3b6e;}.cls-2{fill:#f47c44;}</style></defs><title>AMP-logo</title><g id="Layer_2" data-name="Layer 2"><g id="Layer_1-2" data-name="Layer 1"><path class="cls-1" d="M0,17.41,6.32.23H9.77L16,17.41H12.74L11,12.56H5L3.32,17.41ZM5.82,10.2h4.41q-2.11-6.76-2.17-7Z"/><path class="cls-1" d="M18.34,17.41V.2h5.72a10.23,10.23,0,0,1,3.47.52,4.68,4.68,0,0,1,2.28,1.69,4.93,4.93,0,0,1,.84,2.94,6.94,6.94,0,0,1-.32,2.19,4.69,4.69,0,0,1-1,1.73,4.68,4.68,0,0,1-2,1.2,10.52,10.52,0,0,1-3.18.42q-1.59,0-2.59-.09v6.61ZM23.72,8.6a6.78,6.78,0,0,0,1.69-.19,3.37,3.37,0,0,0,1.13-.48,2.21,2.21,0,0,0,.64-.73,2.81,2.81,0,0,0,.32-.84,4.93,4.93,0,0,0,.08-.91,2.61,2.61,0,0,0-.91-2.16,4,4,0,0,0-2.58-.74H21.47v6Q21.61,8.6,23.72,8.6Z"/><path class="cls-1" d="M33.66,17.41V.2h5.72a10.23,10.23,0,0,1,3.47.52,4.68,4.68,0,0,1,2.28,1.69A4.93,4.93,0,0,1,46,5.36a6.94,6.94,0,0,1-.32,2.19,4.69,4.69,0,0,1-1,1.73,4.68,4.68,0,0,1-2,1.2,10.52,10.52,0,0,1-3.18.42q-1.59,0-2.59-.09v6.61ZM39,8.6a6.78,6.78,0,0,0,1.69-.19,3.37,3.37,0,0,0,1.13-.48,2.21,2.21,0,0,0,.64-.73,2.81,2.81,0,0,0,.32-.84,4.93,4.93,0,0,0,.08-.91A2.61,2.61,0,0,0,42,3.31a4,4,0,0,0-2.58-.74H36.78v6Q36.92,8.6,39,8.6Z"/><path class="cls-1" d="M49,17.41V.25h3.18V14.88h7.18l-.09,2.53Z"/><path class="cls-1" d="M62.4,17.41V.25h3.18V17.41Z"/><path class="cls-1" d="M77.58,17.66a7.75,7.75,0,0,1-6-2.37,9.23,9.23,0,0,1-2.2-6.54,8.79,8.79,0,0,1,2.3-6.36,8,8,0,0,1,6-2.4,9,9,0,0,1,5.1,1.4l-1,2.4a7.64,7.64,0,0,0-4-1.23,4.56,4.56,0,0,0-3.74,1.71,7.07,7.07,0,0,0-1.38,4.58A7.1,7.1,0,0,0,74,13.45a4.61,4.61,0,0,0,3.79,1.63A9.36,9.36,0,0,0,82.09,14l.42,2.48A9.51,9.51,0,0,1,77.58,17.66Z"/><path class="cls-1" d="M84.17,17.41,90.49.23h3.46l6.22,17.18H96.91l-1.7-4.85h-6l-1.71,4.85ZM90,10.2H94.4q-2.11-6.76-2.17-7Z"/><path class="cls-1" d="M105,17.41V2.79h-5V.25h13.17V2.79h-5V17.41Z"/><path class="cls-1" d="M116,17.41V.25h3.18V17.41Z"/><path class="cls-1" d="M131.33,17.66a8.07,8.07,0,0,1-6.12-2.35A9,9,0,0,1,123,8.82a9,9,0,0,1,2.25-6.49,9.19,9.19,0,0,1,12.25,0,9,9,0,0,1,2.24,6.5,9,9,0,0,1-2.25,6.47A8.06,8.06,0,0,1,131.33,17.66Zm-3.76-4.22a5.18,5.18,0,0,0,7.54,0,7.29,7.29,0,0,0,1.27-4.59,7.48,7.48,0,0,0-1.27-4.65,5.12,5.12,0,0,0-7.54,0,7.44,7.44,0,0,0-1.28,4.65A7.27,7.27,0,0,0,127.57,13.44Z"/><path class="cls-1" d="M143.43,17.41V.25h3.38L150.52,6l3.41,5.27.6.91.6.91q-.08-4-.08-4.17V.25H158V17.41h-3.42L146.78,5.34l-.56-.93q.09,3.09.09,4.35v8.65Z"/><path class="cls-1" d="M0,34.21v-10H2.19l3,7.23,3-7.23h2.16v10H8.72V29.27l.05-2.84-.25.75L6,33.53H4.37L1.86,27.15l-.25-.75.06,2.9v4.92Z"/><path class="cls-1" d="M11.62,34.21l3.68-10h2l3.63,10h-1.9l-1-2.83H14.56l-1,2.83ZM15,30h2.57q-1.23-3.94-1.26-4.07Z"/><path class="cls-1" d="M22.2,34.21v-10h1.85v10Z"/><path class="cls-1" d="M26.41,34.21v-10h2l2.17,3.36,2,3.08.35.53.35.53q0-2.35,0-2.43V24.2h1.69v10h-2l-4.52-7L28,26.63q.05,1.8.05,2.54v5Z"/><path class="cls-1" d="M39.11,34.21V25.68H36.19V24.2h7.68v1.48H41v8.53Z"/><path class="cls-1" d="M45.09,34.21v-10h6.07l-.08,1.47H46.95v2.58h3.94v1.47H46.95v3h4.29l-.06,1.48Z"/><path class="cls-1" d="M53.11,34.21v-10h2l2.17,3.36,2,3.08.35.53.35.53q0-2.35,0-2.43V24.2h1.69v10h-2l-4.52-7-.33-.54q.05,1.8.05,2.54v5Z"/><path class="cls-1" d="M62.77,34.21l3.68-10h2l3.63,10H70.2l-1-2.83H65.7l-1,2.83ZM66.17,30h2.57q-1.23-3.94-1.26-4.07Z"/><path class="cls-1" d="M73.24,34.21v-10h2l2.17,3.36,2,3.08.35.53.35.53q0-2.35,0-2.43V24.2h1.69v10h-2l-4.52-7-.33-.54q.05,1.8.05,2.54v5Z"/><path class="cls-1" d="M88.37,34.36A4.52,4.52,0,0,1,84.89,33a5.38,5.38,0,0,1-1.29-3.81,5.12,5.12,0,0,1,1.34-3.71,4.65,4.65,0,0,1,3.52-1.4,5.23,5.23,0,0,1,3,.81l-.58,1.4a4.46,4.46,0,0,0-2.35-.72,2.66,2.66,0,0,0-2.18,1,4.12,4.12,0,0,0-.8,2.67,4.15,4.15,0,0,0,.78,2.69,2.69,2.69,0,0,0,2.21,1,5.46,5.46,0,0,0,2.5-.63l.25,1.45A5.54,5.54,0,0,1,88.37,34.36Z"/><path class="cls-1" d="M93,34.21v-10h6.07L99,25.67H94.89v2.58h3.94v1.47H94.89v3h4.29l-.06,1.48Z"/><path class="cls-2" d="M105.07,34.21v-10h3.34a6,6,0,0,1,2,.3,2.73,2.73,0,0,1,1.33,1,2.87,2.87,0,0,1,.49,1.72,4,4,0,0,1-.18,1.27,2.6,2.6,0,0,1-1.8,1.71,6.14,6.14,0,0,1-1.86.25q-.93,0-1.51-.05v3.86Zm3.14-5.14a4,4,0,0,0,1-.11,2,2,0,0,0,.66-.28,1.29,1.29,0,0,0,.38-.42,1.65,1.65,0,0,0,.19-.49,2.89,2.89,0,0,0,0-.53,1.52,1.52,0,0,0-.53-1.26,2.34,2.34,0,0,0-1.5-.43H106.9v3.51Z"/><path class="cls-2" d="M118.25,34.36A4.7,4.7,0,0,1,114.68,33a5.25,5.25,0,0,1-1.31-3.78,5.23,5.23,0,0,1,1.31-3.79,5.36,5.36,0,0,1,7.14,0,5.26,5.26,0,0,1,1.31,3.79A5.24,5.24,0,0,1,121.82,33,4.7,4.7,0,0,1,118.25,34.36Zm-2.19-2.46a3,3,0,0,0,4.4,0,4.24,4.24,0,0,0,.74-2.68,4.36,4.36,0,0,0-.74-2.71,3,3,0,0,0-4.39,0,4.33,4.33,0,0,0-.75,2.71A4.24,4.24,0,0,0,116.05,31.9Z"/><path class="cls-2" d="M125,34.21v-10h3.71a10.92,10.92,0,0,1,1.32.07,4.9,4.9,0,0,1,1.06.25,2.2,2.2,0,0,1,.81.49,2.15,2.15,0,0,1,.49.8,3.43,3.43,0,0,1,.18,1.17,2.53,2.53,0,0,1-1.81,2.63,7.42,7.42,0,0,1,.92,1.54l1.49,3.09h-2L130,31.6q-.66-1.41-.82-1.67h-2.32v4.31Zm3.88-5.63a2.44,2.44,0,0,0,1.53-.38,1.49,1.49,0,0,0,.46-1.22,1.26,1.26,0,0,0-.47-1.09,2.43,2.43,0,0,0-1.44-.35h-2.13v3h2Z"/><path class="cls-2" d="M136.63,34.21V25.68h-2.92V24.2h7.68v1.48h-2.91v8.53Z"/><path class="cls-2" d="M141.44,34.21l3.68-10h2l3.63,10h-1.9l-1-2.83h-3.51l-1,2.83Zm3.4-4.21h2.57q-1.23-3.94-1.26-4.07Z"/><path class="cls-2" d="M151.91,34.21v-10h1.85v8.54H158l-.05,1.48Z"/></g></g></svg>