<svg xmlns="http://www.w3.org/2000/svg" xmlns:xlink="http://www.w3.org/1999/xlink" viewBox="0 0 103.85 97"><defs><style>.cls-1{fill:none;}.cls-2{clip-path:url(#clip-path);}.cls-3{fill:#005aab;}.cls-4{fill:#ffb81a;}.cls-5{fill:#eb2a2e;}</style><clipPath id="clip-path" transform="translate(0 0)"><rect class="cls-1" x="0.19" width="103.66" height="97"/></clipPath></defs><title>hexaware-logo</title><g id="Layer_2" data-name="Layer 2"><g id="Layer_1-2" data-name="Layer 1"><g class="cls-2"><path class="cls-3" d="M46.08,11.38l-15.59,78a9.51,9.51,0,1,1-18.65-3.73l15.59-78a9.51,9.51,0,0,1,18.65,3.73" transform="translate(0 0)"/><path class="cls-3" d="M89.72,35.63,79,89.35a9.51,9.51,0,0,1-18.65-3.73L71.07,31.9a9.51,9.51,0,0,1,18.65,3.73" transform="translate(0 0)"/><path class="cls-4" d="M103.85,87.3a9.7,9.7,0,1,1-9.7-9.7,9.7,9.7,0,0,1,9.7,9.7" transform="translate(0 0)"/><path class="cls-5" d="M95,9.73A9.7,9.7,0,1,1,85.25,0,9.7,9.7,0,0,1,95,9.73" transform="translate(0 0)"/><path class="cls-5" d="M9.59,38.8H53.24a9.51,9.51,0,0,1,9.33,11.38l-.08.38a9.51,9.51,0,0,1-9.33,7.65H9.51A9.51,9.51,0,0,1,.19,46.82l.08-.38A9.51,9.51,0,0,1,9.59,38.8" transform="translate(0 0)"/></g></g></g></svg>