<svg xmlns="http://www.w3.org/2000/svg" viewBox="0 0 625.49 333.59"><defs><style>.cls-1{fill:#ed7423;}.cls-1,.cls-2,.cls-3{fill-rule:evenodd;}.cls-2{fill:#1d3b6e;}.cls-3{fill:#010101;}</style></defs><title>max-life-logo</title><g id="Layer_2" data-name="Layer 2"><g id="Layer_1-2" data-name="Layer 1"><path class="cls-1" d="M344.57,230v41.27H236.75v-3.44h14.32V154.14H236.75v-3.62h56.78v3.62H278.25V267.82h22.42q20.39.17,30.33-8.6t9.93-29.05Zm19.49,37.84V154.14H349.72v-3.62h55.66v3.62H391.06V267.82h14.32v3.44H349.72v-3.44ZM486.78,236q0-12.49-5.14-18.91t-18.74-6.43H451.5v57.2h15.25v3.44H409.81v-3.44h14.33V154.14H409.81v-3.62H514l.37,33.85H511q0-13.58-10-21.81a35.79,35.79,0,0,0-23.43-8.24l-26.08-.18V207q16.88.18,26.08-3t9.19-22.16l3.5-.18V236Zm138.71,35.3h-108v-3.44h14.32V154.14H517.46v-3.62H620.34l.55,34.4h-3.47q-.38-14.29-8.83-22.45T586,154.32l-27.18-.18v51.78q16.53.19,24.52-3t8-21.09l3.68-.18v54.49h-3.29q0-11.58-6.16-19c-4.12-5-10.37-7.42-18.85-7.42H558.8v58.11H584.9q16.86.17,27.08-7.07t10.19-25.34V234a3,3,0,0,0-.07-.73,2.31,2.31,0,0,1-.11-.71l3.5-.2Z"/><path class="cls-2" d="M558,46.31l50.41,73,16.79,1.15v3.43H555.08V120.5H571L538.16,70.92C528,84.58,519,95.37,509.43,109.44c-1.82,2.68-2.64,4.84-2.64,6.17,0,4.84,5.58,4.87,9.57,4.87l6.51,0v3.43H449.45V120.5h15.48L451.08,85.71H413.59l-8.16,20.11A46.46,46.46,0,0,0,403.8,111a18.28,18.28,0,0,0-.62,4.26,4.34,4.34,0,0,0,3,4.17c2,.85,4.93,1.27,8.87,1.27l3.26-.19v3.43H341.18V120.5h15.88V10.55L309,123.93h-7.12L254.57,8V97q0,15.75,2.54,19.83t12.33,4.07h1.44a2.18,2.18,0,0,0,.7-.09,2.58,2.58,0,0,1,.72-.09v3.25H233V120.5h2.85q9,.19,11.51-4.26c1.7-3,2.54-9.4,2.54-19.28V6.74H234V3.11h50.73l34.64,84.6,35.87-84.6H402.9V6.74H387V120a15.91,15.91,0,0,0,5.78-2c2.85-1.81,5.36-5.45,7.54-10.87L443.12.41h4L498.73,112c12.74-15.29,24-29.39,36-45.34L493.86,6.74h-14.8V3.11h64.8V6.74l-14-.35,24,35.11L568.75,22a50.8,50.8,0,0,0,4.36-6.7,10.77,10.77,0,0,0,1.52-4.52,3.06,3.06,0,0,0-1.73-2.91,11.49,11.49,0,0,0-5.19-.91l-5.3-.18V3.11h44V6.74c-13.14-1-20.48,1.08-31,15.61ZM415.68,81.92h34L433.24,39.51Z"/><path class="cls-1" d="M87,0c23.7,23.79,53.78,34.1,44.54,71.51-6.57,26.63-60,39.9-34.81,99.22,24.07,9.14,55.34-10.73,34.23-51.55l30.49,26.65c.49.4,18.52,20.94,1.6,40.47s-41.64,18.11-64.07-1.41c-12.28-10.68-23.79-20.34-30.28-27.76-16.39-18.76-10.74-49.93,3.28-71,14.62-22,28.2-42.84,22.74-69.47A38.42,38.42,0,0,0,87,0"/><path class="cls-2" d="M0,240.94c62.65,14.27,84.09,3.32,106.53-16,21.5-18.52,45.46-23.58,65.41-18.66,19.44,4.8,37.19,25.38,57.89,43.75-45.61-17-69.25-6.25-104.14,12.36-65,34.7-93.1,13.3-125.69-21.42"/><path class="cls-3" d="M251.48,297h4.4v35.93h-4.4Zm43.24,20c2.2,3.16,4.36,6.42,6.53,9.77h.15q-.35-5.24-.35-10.68V297h4.41v35.93H301.1L287,312.9q-3.65-5.24-6.54-9.76h-.15c.24,3.27.36,7.1.36,11.46v18.32h-4.41V297h4.38Zm34.41-10.52a4.77,4.77,0,0,0,.65,2.62,5.12,5.12,0,0,0,1.73,1.7,10.84,10.84,0,0,0,2.53,1.1c1,.29,2,.56,3,.81,1.39.34,2.79.72,4.13,1.11a12.85,12.85,0,0,1,3.61,1.71,8.11,8.11,0,0,1,2.58,2.84,9.07,9.07,0,0,1,1,4.48,10.29,10.29,0,0,1-1.05,4.81,9,9,0,0,1-2.86,3.34A13.21,13.21,0,0,1,340,333a24.31,24.31,0,0,1-5.6.62,20.37,20.37,0,0,1-2.86-.19,23.52,23.52,0,0,1-2.81-.46,21.93,21.93,0,0,1-2.4-.67,9.28,9.28,0,0,1-1.7-.75v-4a16.34,16.34,0,0,0,2.18.89,25.34,25.34,0,0,0,2.51.69c.87.17,1.74.33,2.61.43a20.35,20.35,0,0,0,2.48.16,18.39,18.39,0,0,0,3.62-.33,8.94,8.94,0,0,0,3-1.07,5.77,5.77,0,0,0,2-2,6.46,6.46,0,0,0,.75-3.27,4.88,4.88,0,0,0-.66-2.66,5.38,5.38,0,0,0-1.75-1.72,9.91,9.91,0,0,0-2.56-1.12c-.94-.29-2-.56-3-.8-1.42-.34-2.77-.69-4.11-1.09a12.84,12.84,0,0,1-3.57-1.69,8,8,0,0,1-2.56-2.78,8.64,8.64,0,0,1-1-4.31,10.55,10.55,0,0,1,1-4.71,9.37,9.37,0,0,1,2.65-3.27,11.45,11.45,0,0,1,3.9-1.9,17.81,17.81,0,0,1,4.77-.6,23.88,23.88,0,0,1,5.37.54,24.6,24.6,0,0,1,4.57,1.42v4.05a31.46,31.46,0,0,0-4.62-1.53,21.62,21.62,0,0,0-5.08-.61,12.82,12.82,0,0,0-3.56.44,6.7,6.7,0,0,0-2.51,1.26,5.73,5.73,0,0,0-1.49,2,6.82,6.82,0,0,0-.48,2.59m52.18,23.2a12.5,12.5,0,0,0,3.5-.45,8.6,8.6,0,0,0,2.67-1.31,7.5,7.5,0,0,0,1.86-2,10.11,10.11,0,0,0,1.18-2.59,9.73,9.73,0,0,0,.36-2,19.86,19.86,0,0,0,.12-2.12V297h4.39v22.19c0,.86,0,1.72-.13,2.63a17.24,17.24,0,0,1-.45,2.55,13.36,13.36,0,0,1-1.52,3.68A10.37,10.37,0,0,1,390.6,331a12.68,12.68,0,0,1-3.92,1.92,18.46,18.46,0,0,1-5.41.7,18.86,18.86,0,0,1-5.19-.65,12.79,12.79,0,0,1-3.86-1.77,10.4,10.4,0,0,1-2.61-2.73A13.42,13.42,0,0,1,368,325a19.18,19.18,0,0,1-.57-2.88,26.49,26.49,0,0,1-.17-3V297h4.39v22.3a18.61,18.61,0,0,0,.17,2.49,11.18,11.18,0,0,0,.56,2.31,8,8,0,0,0,3.14,4.11,10,10,0,0,0,5.79,1.51M420,318.05v14.86h-4.4V297h9.34a39.5,39.5,0,0,1,4,.19,21.2,21.2,0,0,1,3,.55,10.86,10.86,0,0,1,5.78,3.49,9.43,9.43,0,0,1,2,6.13,10.47,10.47,0,0,1-.7,3.89,9.3,9.3,0,0,1-2,3,10.56,10.56,0,0,1-3,2.08,16.44,16.44,0,0,1-3.92,1.16v.1l11.77,15.36h-5.53l-11.1-14.86Zm0-17.11V314.1h4.33c1.33,0,2.49,0,3.46-.12a13.25,13.25,0,0,0,2.56-.5,6.8,6.8,0,0,0,3.51-2.22,6.15,6.15,0,0,0,1.24-4,5.68,5.68,0,0,0-1.18-3.71,6.4,6.4,0,0,0-3.19-2,14.06,14.06,0,0,0-2.31-.43c-.9-.07-2-.13-3.42-.13Zm35.78,32L470.42,297h3.8l14.68,35.93h-4.78l-4.3-10.82H464.76l-4.31,10.82Zm16.53-30.33q-2.39,6.73-4.59,12.19l-1.36,3.39h11.92l-1.35-3.39c-1.44-3.73-3-7.78-4.52-12.19ZM524.11,317c2.18,3.16,4.37,6.42,6.53,9.77h.16c-.22-3.49-.36-7.05-.36-10.68V297h4.41v35.93h-4.38l-14.12-20q-3.67-5.24-6.56-9.76h-.14c.23,3.27.35,7.1.35,11.46v18.32h-4.4V297H510Zm48.54-16.8a15.89,15.89,0,0,0-5.57.95,12.63,12.63,0,0,0-4.53,2.85,13.75,13.75,0,0,0-3,4.69,18,18,0,0,0-1.1,6.54,18.86,18.86,0,0,0,1,6.44,11.76,11.76,0,0,0,2.9,4.49,11.47,11.47,0,0,0,4.55,2.65,19.16,19.16,0,0,0,5.91.87,17.18,17.18,0,0,0,1.87-.1,19.24,19.24,0,0,0,2-.27c.68-.11,1.32-.24,2-.39s1.18-.32,1.7-.5v3.87a18.34,18.34,0,0,1-3.68,1,26.72,26.72,0,0,1-4.33.33,23.11,23.11,0,0,1-7.95-1.25,15.79,15.79,0,0,1-5.84-3.58,15.33,15.33,0,0,1-3.58-5.71,23.19,23.19,0,0,1-1.18-7.63,22.51,22.51,0,0,1,1.26-7.7,16.85,16.85,0,0,1,3.69-6,16.55,16.55,0,0,1,5.82-3.94,20.18,20.18,0,0,1,7.72-1.4c.76,0,1.5,0,2.24.08s1.42.15,2.11.27a18.14,18.14,0,0,1,1.88.42c.58.17,1.06.33,1.49.5v3.88a28.21,28.21,0,0,0-3.54-.91,21.49,21.49,0,0,0-3.85-.35M603.24,329h18.47v3.94H598.84V297H620.7v4H603.24v11.6h15.54v4H603.24Z"/></g></g></svg>