<svg xmlns="http://www.w3.org/2000/svg" viewBox="0 0 229.83 280.02"><defs><style>.cls-1{fill:#ed7423;}.cls-1,.cls-2{fill-rule:evenodd;}.cls-2{fill:#1d3b6e;}</style></defs><title>max-life-icon</title><g id="Layer_2" data-name="Layer 2"><g id="Layer_1-2" data-name="Layer 1"><path class="cls-1" d="M87,0c23.7,23.79,53.78,34.1,44.54,71.51-6.57,26.63-60,39.9-34.81,99.22,24.07,9.14,55.34-10.73,34.23-51.55l30.49,26.65c.49.4,18.52,20.94,1.6,40.47s-41.64,18.11-64.07-1.41c-12.28-10.68-23.79-20.34-30.28-27.76-16.39-18.76-10.74-49.93,3.28-71,14.62-22,28.2-42.84,22.74-69.47A38.42,38.42,0,0,0,87,0"/><path class="cls-2" d="M0,240.94c62.65,14.27,84.09,3.32,106.53-16,21.5-18.52,45.46-23.58,65.41-18.66,19.44,4.8,37.19,25.38,57.89,43.75-45.61-17-69.25-6.25-104.14,12.36-65,34.7-93.1,13.3-125.69-21.42"/></g></g></svg>