<svg xmlns="http://www.w3.org/2000/svg" viewBox="0 0 31.79 38.69"><defs><style>.cls-1{fill:#f87c44;}</style></defs><title>run-btn</title><g id="Layer_2" data-name="Layer 2"><g id="Layer_1-2" data-name="Layer 1"><path class="cls-1" d="M19.79,17.12H5.71a.75.75,0,1,1,0-1.5H19.79a.75.75,0,0,1,0,1.5Z"/><path class="cls-1" d="M18.37,22.12H7.12a.75.75,0,1,1,0-1.5H18.37a.75.75,0,0,1,0,1.5Z"/><path class="cls-1" d="M31.79,31.09a7.6,7.6,0,1,1-7.6-7.6,7.6,7.6,0,0,1,7.6,7.6Zm-1.32,0a6.28,6.28,0,1,0-6.28,6.28,6.29,6.29,0,0,0,6.28-6.28Z"/><polygon class="cls-1" points="22.25 34.86 22.25 27.89 28.28 31.38 22.25 34.86"/><path class="cls-1" d="M15.84,32.36H3.22A1.82,1.82,0,0,1,1.4,30.54V3.22A1.82,1.82,0,0,1,3.22,1.4H19.41v3a2,2,0,0,0,2,2h3.46V22.64a8.49,8.49,0,0,1,1.4.22V5h-.06a.69.69,0,0,0-.17-.25L21,.18A.7.7,0,0,0,20.81,0V0H3.22A3.22,3.22,0,0,0,0,3.22V30.54a3.22,3.22,0,0,0,3.22,3.22H16.16A8.48,8.48,0,0,1,15.84,32.36Zm5-30.49L24.25,5H21.43a.62.62,0,0,1-.62-.62Z"/></g></g></svg>